<svg id="Layer_1" data-name="Layer 1" xmlns="http://www.w3.org/2000/svg" viewBox="0 0 152.17 198.98"><defs><style>.cls-1{fill:#1a162a;}.cls-2{fill:#a59aa5;}</style></defs><title>splash_1</title><path class="cls-1" d="M103.41,4.83A17,17,0,0,0,91.49,0H23.93A23.91,23.91,0,0,0,0,23.82V99a6,6,0,0,0,12,0V23.82A11.9,11.9,0,0,1,23.93,12H90V37.06a23.55,23.55,0,0,0,23.52,23.52h26.65V99a6,6,0,0,0,12,0V59.31A17.27,17.27,0,0,0,147,47Zm24.5,42.37a2.2,2.2,0,0,1-2.07,1.38H113.52A11.54,11.54,0,0,1,102,37.06V25.41a2.23,2.23,0,0,1,3.72-1.66l21.69,21A2.22,2.22,0,0,1,127.91,47.2Z"/><path class="cls-2" d="M76.08,175.55A11.72,11.72,0,1,0,87.8,187.26,11.72,11.72,0,0,0,76.08,175.55Z"/><path class="cls-2" d="M109.89,164.61a51.76,51.76,0,0,0-67.62,0,6.13,6.13,0,1,0,8,9.29,39.51,39.51,0,0,1,51.61,0,6.13,6.13,0,0,0,8-9.29Z"/><path class="cls-2" d="M128.56,143.15a80.34,80.34,0,0,0-105,0,6.13,6.13,0,1,0,8,9.29,68.07,68.07,0,0,1,89,0,6.13,6.13,0,1,0,8-9.29Z"/><path class="cls-2" d="M142.41,120.79a101.57,101.57,0,0,0-132.66,0,6.13,6.13,0,1,0,8,9.29,89.29,89.29,0,0,1,116.65,0,6.13,6.13,0,1,0,8-9.29Z"/></svg>