<svg id="Layer_1" data-name="Layer 1" xmlns="http://www.w3.org/2000/svg" viewBox="0 0 204.97 257.18"><defs><style>.cls-1{fill:#b9aab8;}.cls-2{fill:#1e1d33;}.cls-3{fill:#44426e;}</style></defs><title>icon</title><path class="cls-1" d="M39.18,257.18A39.15,39.15,0,0,1,0,218.14V39A39.15,39.15,0,0,1,39.18,0h82a30.72,30.72,0,0,1,21.52,8.73l52.84,51.15A31.09,31.09,0,0,1,205,82.12V218.51a38.7,38.7,0,0,1-38.67,38.67Zm0-222.37A4.31,4.31,0,0,0,34.81,39v179.1a4.31,4.31,0,0,0,4.37,4.24H166.3a3.88,3.88,0,0,0,3.87-3.87V93.79H147.93a38.71,38.71,0,0,1-38.67-38.68V34.81Z"/><path class="cls-2" d="M188.83,66.83,136,15.66a21.15,21.15,0,0,0-14.79-6h-82A29.48,29.48,0,0,0,9.67,39v179.1a29.48,29.48,0,0,0,29.51,29.38H166.3a29.05,29.05,0,0,0,29-29V82.13A21.36,21.36,0,0,0,188.83,66.83ZM134.39,41a2.26,2.26,0,0,1,3.75-1.69l26.32,25.49a2.25,2.25,0,0,1-1.56,3.87h-15a13.56,13.56,0,0,1-13.54-13.54Zm45.45,177.53a13.56,13.56,0,0,1-13.54,13.54H39.18a14,14,0,0,1-14-13.91V39a14,14,0,0,1,14-13.9h79.74v30a29.05,29.05,0,0,0,29,29h31.91Z"/><path class="cls-3" d="M162.9,68.65h-15a13.56,13.56,0,0,1-13.54-13.54V41a2.26,2.26,0,0,1,3.75-1.69l26.32,25.49A2.25,2.25,0,0,1,162.9,68.65Z"/><path class="cls-3" d="M179.84,84.12V218.51a13.56,13.56,0,0,1-13.54,13.54H39.18a14,14,0,0,1-14-13.91V39a14,14,0,0,1,14-13.9h79.74v30a29.05,29.05,0,0,0,29,29Z"/><circle class="cls-1" cx="102.49" cy="186.65" r="11.19"/><path class="cls-1" d="M129.24,175.47a5,5,0,0,1-3.25-1.21,36,36,0,0,0-47,0,5,5,0,1,1-6.49-7.53,45.92,45.92,0,0,1,60,0,5,5,0,0,1-3.24,8.74Z"/><path class="cls-1" d="M146,156.21a5,5,0,0,1-3.24-1.21,61.64,61.64,0,0,0-80.53,0,5,5,0,0,1-6.49-7.53,71.58,71.58,0,0,1,93.51,0,5,5,0,0,1-3.25,8.74Z"/><path class="cls-1" d="M158.42,136.14a5,5,0,0,1-3.24-1.21,80.67,80.67,0,0,0-105.39,0,5,5,0,0,1-6.49-7.53,90.61,90.61,0,0,1,118.37,0,5,5,0,0,1-3.25,8.74Z"/></svg>