<svg id="Layer_1" data-name="Layer 1" xmlns="http://www.w3.org/2000/svg" xmlns:xlink="http://www.w3.org/1999/xlink" viewBox="0 0 300 300"><defs><style>.cls-1{fill:url(#linear-gradient);}.cls-2{fill:#1a162a;}.cls-3{fill:#a59aa5;}</style><linearGradient id="linear-gradient" x1="150" y1="10.77" x2="150" y2="289.23" gradientUnits="userSpaceOnUse"><stop offset="0" stop-color="#a59aa5"/><stop offset="0.13" stop-color="#827b8b"/><stop offset="0.28" stop-color="#645f74"/><stop offset="0.43" stop-color="#4c4963"/><stop offset="0.6" stop-color="#3b3a56"/><stop offset="0.78" stop-color="#31314e"/><stop offset="1" stop-color="#2e2e4c"/></linearGradient></defs><title>icon_2_1</title><circle class="cls-1" cx="150" cy="150" r="139.23"/><path class="cls-2" d="M177.33,58.16a17,17,0,0,0-11.93-4.84H97.85A23.9,23.9,0,0,0,73.92,77.14v75.18a6,6,0,1,0,12,0V77.14A11.89,11.89,0,0,1,97.85,65.32h66.06V90.38a23.55,23.55,0,0,0,23.52,23.52h26.66v38.42a6,6,0,1,0,12,0V112.63a17.24,17.24,0,0,0-5.22-12.33Zm24.5,42.36a2.19,2.19,0,0,1-2.07,1.39H187.43a11.54,11.54,0,0,1-11.52-11.53V78.74a2.23,2.23,0,0,1,3.71-1.67l21.69,21A2.19,2.19,0,0,1,201.83,100.52Z"/><path class="cls-3" d="M150,228.87a11.72,11.72,0,1,0,11.72,11.72A11.74,11.74,0,0,0,150,228.87Z"/><path class="cls-3" d="M183.81,217.93a51.79,51.79,0,0,0-67.62,0,6.13,6.13,0,1,0,8,9.29,39.5,39.5,0,0,1,51.6,0,6.13,6.13,0,0,0,8-9.29Z"/><path class="cls-3" d="M202.48,196.47a80.37,80.37,0,0,0-105,0,6.13,6.13,0,1,0,8,9.29,68.08,68.08,0,0,1,88.94,0,6.13,6.13,0,0,0,8-9.29Z"/><path class="cls-3" d="M216.33,174.12a101.54,101.54,0,0,0-132.66,0,6.13,6.13,0,0,0,8,9.29,89.28,89.28,0,0,1,116.66,0,6.16,6.16,0,0,0,4,1.48,6.13,6.13,0,0,0,4-10.77Z"/></svg>